<?xml version="1.0" encoding="UTF-8"?>
<svg width="16px" height="16px" viewBox="0 0 16 16" version="1.1" xmlns="http://www.w3.org/2000/svg" xmlns:xlink="http://www.w3.org/1999/xlink">
    <!-- Generator: Sketch 46.2 (44496) - http://www.bohemiancoding.com/sketch -->
    <title>用户设置</title>
    <desc>Created with Sketch.</desc>
    <defs>
        <polygon id="path-1" points="1.4381225e-21 16 16 16 16 0 1.07859188e-21 3.00955073e-15"></polygon>
    </defs>
    <g id="Page-1" stroke="none" stroke-width="1" fill="none" fill-rule="evenodd">
        <g id="用户设置">
            <mask id="mask-2" fill="white">
                <use xlink:href="#path-1"></use>
            </mask>
            <g id="Clip-2"></g>
            <path d="M11.5000738,8.99345178 C10.1210072,8.99345178 8.99995855,10.1155054 8.99995855,11.4957696 C8.99995855,12.8761927 10.1210072,13.9982463 11.5000738,13.9982463 C12.8790342,13.9982463 14.0000829,12.8761927 14.0000829,11.4957696 C14.0000829,10.1155054 12.8790342,8.99345178 11.5000738,8.99345178 L11.5000738,8.99345178 Z M14.9500482,11.9962808 C14.8687908,12.5725557 14.6435093,13.1191816 14.2950022,13.5857554 L15.0351256,14.3274819 L14.3280834,15.0351122 L13.5880661,14.2934915 C13.1222491,14.6415225 12.5761564,14.8669868 11.9999801,14.9490773 L11.9999801,16 L10.9999552,16 L10.9999552,14.9490773 C10.4236994,14.8674898 9.87747401,14.6419725 9.41197537,14.2934915 L8.67198456,15.0340798 L7.96491583,14.326476 L8.70493317,13.5857554 C8.35642599,13.1191816 8.13125061,12.5725557 8.04999328,11.9962808 L7.00004145,11.9962808 L7.00004145,10.9952849 L8.04999328,10.9952849 C8.13125061,10.41901 8.35642599,9.8723841 8.70493317,9.40581033 L7.96491583,8.6651162 L8.67198456,7.95740652 L9.41197537,8.69810065 C9.87747401,8.34951379 10.4236994,8.12407594 10.9999552,8.0424884 L10.9999552,6.99156573 L11.9999801,6.99156573 L11.9999801,8.0424884 C12.5762359,8.12407594 13.1225674,8.34951379 13.5880661,8.69810065 L14.3280834,7.95647999 L15.0351256,8.66408378 L14.2950022,9.40581033 C14.6369833,9.86317175 14.8649707,10.4036826 14.9500482,10.9952849 L16,10.9952849 L16,11.996175 L14.9500482,11.996175 L14.9500482,11.9962808 Z M7.28604708,7.98957033 C7.01404859,8.31777354 6.78606117,8.68216435 6.59508125,9.06757413 C3.59007231,9.52700039 1.23504239,12.2595741 0.999998342,14.9991099 L0,14.9991099 C0.207056296,11.9962808 2.32396484,9.27871696 5.19505704,8.35983798 C3.87204558,7.57509399 2.97505807,6.15480373 2.97505807,4.5052636 C2.97556212,2.01808789 4.98914148,0.00166856037 7.47402926,8.07323991e-07 C8.66752774,-0.000713943983 9.81239917,0.473192645 10.6565416,1.31760513 C11.5007901,2.16201762 11.9750962,3.30768455 11.9750962,4.50224576 C11.9750962,5.03076464 11.8750035,5.5311435 11.7060955,5.99970269 C11.6460876,5.99763785 11.5860797,5.99056976 11.5260719,5.99056976 C11.2050484,5.99056976 10.8920896,6.0236601 10.587116,6.07671053 C10.8270148,5.60219508 10.9760264,5.07378208 10.9760264,4.50619013 C10.9760264,2.57432324 9.40605948,1.00295572 7.47506388,1.00295572 C5.54406827,1.00295572 3.97598492,2.57432324 3.97598492,4.50619013 C3.9749503,6.37298818 5.44501021,7.88934631 7.28604708,7.98957033 L7.28604708,7.98957033 Z" id="Fill-1" fill="#2E2E2E" mask="url(#mask-2)"></path>
        </g>
    </g>
</svg>